<?xml version="1.0" standalone="no"?>
<!DOCTYPE svg PUBLIC "-//W3C//DTD SVG 20010904//EN"
 "http://www.w3.org/TR/2001/REC-SVG-20010904/DTD/svg10.dtd">
<svg version="1.0" xmlns="http://www.w3.org/2000/svg"
 width="500.000000pt" height="500.000000pt" viewBox="0 0 500.000000 500.000000"
 preserveAspectRatio="xMidYMid meet">
<metadata>
Created by potrace 1.14, written by Peter Selinger 2001-2017
</metadata>
<g transform="translate(0.000000,500.000000) scale(0.100000,-0.100000)"
fill="#000000" stroke="none">
<path d="M1820 4818 c-300 -50 -547 -92 -548 -94 -2 -1 5 -93 15 -204 11 -111
16 -203 13 -205 -3 -2 -168 -38 -366 -81 -197 -42 -360 -78 -362 -79 -1 -1 9
-80 23 -175 14 -95 23 -175 21 -177 -3 -3 -58 -18 -123 -35 -65 -16 -119 -31
-121 -32 -1 -2 3 -38 9 -80 9 -63 14 -76 28 -72 127 37 162 39 189 7 11 -13
12 -13 7 -1 -4 10 -2 9 8 -2 8 -10 17 -15 20 -11 4 3 7 1 7 -5 0 -7 3 -11 8
-10 7 1 41 -11 87 -31 54 -24 126 -51 185 -70 36 -12 74 -26 85 -30 41 -18 84
-33 87 -30 2 1 14 -4 28 -11 28 -15 36 -18 65 -22 11 -2 26 -9 33 -15 7 -7 21
-14 30 -14 23 -2 35 -4 52 -11 21 -9 113 -38 136 -43 85 -19 86 -18 -57 -69
-73 -27 -153 -55 -176 -63 l-42 -15 -418 163 c-230 89 -446 173 -481 187 -35
13 -66 22 -69 19 -3 -3 11 -98 31 -210 20 -112 43 -246 51 -298 9 -52 20 -117
26 -146 l10 -52 42 15 c43 15 107 11 107 -6 0 -6 7 -10 15 -10 9 0 25 -9 37
-20 11 -10 34 -22 49 -25 16 -4 31 -10 34 -15 6 -10 113 -60 128 -60 6 0 18
-6 26 -13 9 -7 41 -24 71 -37 30 -14 57 -28 60 -31 11 -14 94 -48 103 -42 6 3
7 1 3 -5 -4 -8 0 -12 11 -12 10 0 29 -9 42 -19 14 -10 31 -17 38 -14 7 3 16
-2 19 -11 3 -9 12 -16 19 -16 6 0 33 -11 58 -24 25 -14 48 -22 51 -19 3 4 6 1
6 -6 0 -7 5 -9 10 -6 5 3 10 2 10 -3 0 -9 23 -19 65 -28 10 -3 22 -8 25 -12 3
-4 14 -8 25 -10 11 -2 25 -9 30 -15 6 -7 16 -12 23 -13 28 -2 33 -4 28 -13 -3
-5 15 -3 41 5 25 8 48 13 49 11 5 -5 17 -112 29 -252 2 -22 6 -60 9 -85 3 -25
8 -70 10 -100 3 -30 7 -68 9 -85 3 -16 8 -61 12 -100 4 -38 9 -81 12 -95 4
-26 8 -63 19 -195 3 -44 9 -82 13 -85 17 -14 7 -32 -32 -58 -73 -50 -365 -222
-375 -222 -6 0 -14 26 -18 58 -4 31 -34 275 -68 542 l-62 484 -508 274 c-279
150 -510 271 -513 269 -4 -5 39 -229 207 -1081 43 -218 64 -305 77 -317 14
-13 590 -448 908 -686 l31 -22 74 49 c41 28 80 48 86 46 6 -2 169 -118 362
-256 l351 -252 61 47 61 47 42 -29 c23 -16 86 -60 139 -97 l98 -67 135 112
136 111 70 -46 c60 -40 73 -45 86 -34 9 7 156 134 327 281 171 148 316 271
321 273 6 3 49 -16 95 -41 46 -25 89 -44 95 -41 8 3 264 233 544 488 l54 49
27 212 c15 117 26 213 25 215 -2 2 -65 -49 -141 -112 -104 -86 -140 -111 -142
-98 -1 9 9 118 22 242 14 123 24 226 22 227 -1 2 -74 -51 -162 -116 -87 -66
-162 -117 -166 -115 -5 3 -6 15 -3 27 11 54 46 530 38 537 -4 4 -91 38 -192
76 -102 38 -193 75 -203 84 -18 14 -18 15 7 16 31 2 57 22 48 38 -3 6 -3 8 2
4 4 -4 14 -3 21 2 6 6 16 10 20 9 13 -3 64 23 60 30 -8 12 29 33 61 34 7 0 9
5 6 10 -4 6 1 8 11 4 13 -5 17 -3 13 7 -4 9 0 13 11 12 9 -2 25 7 35 18 10 12
16 15 12 9 -10 -21 3 -15 35 17 16 16 30 25 30 19 0 -6 5 -7 10 -4 6 4 7 11 4
17 -5 7 -1 9 9 5 8 -3 17 0 20 6 3 7 29 24 60 40 30 15 60 34 67 42 7 8 16 12
21 9 5 -3 9 2 9 11 0 11 5 15 16 11 8 -3 12 -2 9 4 -3 6 -2 10 4 10 5 0 11 6
13 14 2 12 41 4 188 -39 279 -81 265 -75 262 -110 -1 -17 -29 -239 -61 -495
-33 -256 -59 -466 -58 -467 1 -1 56 43 122 98 79 65 123 109 128 127 7 26 137
913 137 936 0 7 -56 27 -124 45 -67 18 -128 36 -134 40 -8 5 1 105 33 356 24
193 40 353 37 356 -4 3 -47 14 -97 23 -140 27 -128 16 -121 106 l7 77 -108 21
c-59 12 -111 22 -115 22 -4 0 -10 -26 -13 -57 -10 -86 -11 -88 -47 -87 -18 1
-62 -10 -98 -23 -36 -13 -69 -25 -75 -27 -23 -7 -166 -62 -200 -77 -51 -22
-81 -32 -94 -30 -7 1 -10 -2 -7 -7 3 -5 -6 -9 -21 -9 -14 0 -32 -9 -40 -19 -7
-9 -16 -15 -19 -11 -4 3 -16 1 -28 -5 -11 -7 -23 -13 -26 -13 -20 -4 -50 -18
-50 -24 0 -4 -23 -14 -51 -21 -27 -8 -53 -18 -55 -22 -3 -5 -10 -6 -15 -3 -5
4 -9 1 -9 -5 0 -7 -6 -10 -14 -7 -8 3 -17 -1 -20 -9 -3 -8 -16 -14 -29 -14
-13 0 -27 -4 -32 -9 -6 -6 -23 -12 -38 -15 -15 -3 -44 -15 -65 -28 -20 -12
-39 -22 -42 -22 -3 1 -15 -2 -28 -7 -13 -5 -28 -9 -33 -9 -6 0 -7 -4 -4 -10 3
-5 0 -7 -8 -4 -8 3 -20 -2 -27 -11 -7 -8 -20 -15 -30 -15 -15 0 -63 -18 -140
-52 -14 -7 -27 -12 -30 -12 -3 -1 -45 -21 -95 -45 -89 -44 -173 -96 -239 -146
l-34 -26 -6 73 c-3 40 -8 183 -12 318 -3 135 -6 245 -7 246 -4 3 -1168 305
-1215 316 -29 6 -49 15 -45 19 5 4 77 23 161 43 147 35 154 36 200 21 26 -8
56 -17 67 -18 11 -2 27 -7 35 -10 19 -7 190 -46 255 -58 28 -5 72 -13 98 -19
118 -24 266 -38 373 -35 140 4 225 15 319 41 11 3 28 7 37 8 10 1 21 5 24 9 4
4 17 7 29 7 12 0 62 13 111 29 84 27 137 42 159 46 18 2 70 18 80 24 6 3 18 7
28 8 40 6 325 105 374 130 29 14 50 31 46 36 -4 6 0 8 8 5 9 -3 19 3 25 16 16
34 -13 77 -61 91 -24 7 -40 17 -39 26 0 8 4 101 8 207 6 156 5 192 -6 192 -7
0 -262 27 -567 60 -305 33 -571 60 -590 59 -20 0 -281 -41 -581 -91z m2439
-1248 c101 -21 186 -41 189 -44 4 -5 -42 -425 -54 -484 -4 -21 -15 -31 -42
-41 -20 -7 -45 -13 -54 -14 -10 -1 -18 -5 -18 -9 0 -4 -7 -8 -16 -8 -8 0 -35
-12 -60 -26 -24 -14 -44 -22 -44 -17 0 4 -4 4 -8 -2 -4 -5 -23 -18 -42 -29
-19 -10 -58 -31 -87 -47 -29 -16 -59 -29 -68 -29 -8 0 -18 -7 -21 -15 -4 -8
-12 -15 -20 -15 -8 0 -14 -5 -14 -11 0 -5 -4 -7 -10 -4 -5 3 -10 1 -10 -5 0
-6 -4 -9 -8 -6 -5 3 -21 -6 -36 -19 -16 -14 -33 -22 -37 -19 -5 3 -9 0 -9 -5
0 -6 -7 -11 -15 -11 -9 0 -18 -7 -21 -15 -4 -8 -10 -12 -15 -9 -6 3 -25 -6
-44 -20 -18 -14 -38 -26 -44 -26 -6 0 -11 -4 -11 -10 0 -5 -5 -10 -10 -10 -13
0 -98 -67 -164 -128 -48 -45 -50 -48 -67 -144 -24 -127 -28 -163 -34 -278 -3
-52 -7 -108 -10 -125 -5 -31 -18 -388 -18 -504 l0 -63 -165 -124 c-91 -68
-168 -121 -172 -117 -5 7 -3 247 14 1289 l7 411 -213 73 c-117 40 -226 78
-242 85 -28 12 -28 12 30 19 94 12 257 60 359 106 11 5 38 15 60 22 22 7 42
16 45 19 3 4 33 17 68 29 34 13 65 27 68 31 2 4 11 6 19 2 8 -3 15 0 15 7 0 6
5 8 10 5 6 -3 10 -2 10 2 0 5 16 15 35 22 19 7 35 16 35 21 0 5 7 7 15 4 8 -4
15 -1 15 6 0 6 4 8 10 5 10 -6 51 12 61 28 4 5 18 11 33 12 14 2 33 10 42 19
14 14 35 21 57 17 4 0 7 4 7 10 0 5 4 8 9 4 5 -3 15 1 23 8 7 8 19 12 26 9 6
-2 12 1 12 8 0 6 5 8 10 5 6 -3 10 -2 10 3 0 6 7 13 16 16 10 4 13 2 8 -7 -5
-9 -4 -9 7 1 7 6 20 12 29 12 9 0 21 5 28 12 6 6 17 13 24 14 16 3 58 21 78
34 26 17 123 60 136 60 6 0 17 7 24 15 7 8 16 13 20 10 4 -3 13 2 20 10 16 20
7 21 219 -25z m-2297 -460 c6 0 8 -3 4 -7 -8 -8 96 -44 136 -46 9 -1 14 -5 12
-9 -3 -4 5 -9 18 -9 32 -2 58 -6 93 -13 76 -17 175 -26 223 -21 61 7 60 10 37
-110 -8 -43 -17 -128 -21 -189 -12 -211 -1 -804 15 -835 9 -16 -16 -33 -184
-135 -107 -65 -199 -114 -205 -111 -5 3 -10 34 -10 67 0 63 -59 1111 -63 1114
-7 6 -427 164 -436 164 -6 0 -11 4 -11 9 0 5 73 36 163 69 89 32 169 62 177
65 8 3 21 4 28 1 8 -2 19 -4 24 -4z"/>
</g>
</svg>
